<svg width="24" height="24" viewBox="0 0 24 24" fill="none" xmlns="http://www.w3.org/2000/svg">
<path d="M1.73914 10.9967H1.23914V11.4967V11.976C1.23914 11.976 1.23914 11.976 1.23914 11.976C1.23905 14.0455 1.78469 16.0775 2.81947 17.858C3.80418 19.5525 5.19754 20.9602 6.86574 21.9474V23V23.5H7.36574H16.7434H17.2434V23V21.9474C18.9116 20.9602 20.305 19.5525 21.2897 17.858C22.3245 16.0775 22.8701 14.0455 22.87 11.976V11.4967V10.9967H22.37H1.73914Z" stroke="#5051F9" stroke-miterlimit="10"/>
<mask id="path-2-outside-1_4_147" maskUnits="userSpaceOnUse" x="18.2812" y="1.52179" width="6" height="7" fill="black">
<rect fill="white" x="18.2812" y="1.52179" width="6" height="7"/>
<path d="M19.2812 7.1231L22.5869 2.52179Z"/>
</mask>
<path d="M20.0934 7.70655L23.399 3.10524L21.7747 1.93834L18.4691 6.53965L20.0934 7.70655Z" fill="#5051F9" mask="url(#path-2-outside-1_4_147)"/>
<mask id="path-4-outside-2_4_147" maskUnits="userSpaceOnUse" x="17.0797" y="-3.05176e-05" width="4" height="7" fill="black">
<rect fill="white" x="17.0797" y="-3.05176e-05" width="4" height="7"/>
<path d="M18.0797 6.28429L19.1875 0.999969Z"/>
</mask>
<path d="M19.0584 6.48945L20.1662 1.20514L18.2087 0.794801L17.101 6.07912L19.0584 6.48945Z" fill="#5051F9" mask="url(#path-4-outside-2_4_147)"/>
<mask id="path-6-outside-3_4_147" maskUnits="userSpaceOnUse" x="2.14282" y="3.29883" width="13" height="9" fill="black">
<rect fill="white" x="2.14282" y="3.29883" width="13" height="9"/>
<path d="M3.26292 11.4967C3.00233 10.2012 3.16847 8.85383 3.73545 7.66488C4.30242 6.47592 5.23836 5.51218 6.39729 4.92394C7.55623 4.3357 8.87302 4.15602 10.1423 4.41294C11.4116 4.66986 12.5621 5.34893 13.4142 6.34424"/>
</mask>
<path d="M4.24329 11.2996C4.0252 10.2153 4.16455 9.08828 4.63807 8.09531L2.83282 7.23444C2.17239 8.61938 1.97945 10.187 2.28256 11.6939L4.24329 11.2996ZM4.63807 8.09531C5.11144 7.10265 5.89061 6.30255 6.8499 5.81565L5.94469 4.03223C4.5861 4.72181 3.49341 5.84919 2.83282 7.23444L4.63807 8.09531ZM6.8499 5.81565C7.80877 5.32895 8.89625 5.18101 9.94392 5.39307L10.3407 3.43282C8.84978 3.13104 7.30369 3.34244 5.94469 4.03223L6.8499 5.81565ZM9.94392 5.39307C10.9918 5.60517 11.9457 6.16657 12.6546 6.99462L14.1739 5.69386C13.1785 4.53128 11.8314 3.73455 10.3407 3.43282L9.94392 5.39307Z" fill="#5051F9" mask="url(#path-6-outside-3_4_147)"/>
<mask id="path-8-outside-4_4_147" maskUnits="userSpaceOnUse" x="4.02051" y="5.22321" width="9" height="7" fill="black">
<rect fill="white" x="4.02051" y="5.22321" width="9" height="7"/>
<path d="M5.19715 11.4967C4.93122 10.6143 4.96641 9.66576 5.29693 8.80647C5.62746 7.94718 6.23372 7.22815 7.01636 6.76721C7.79901 6.30626 8.71161 6.13075 9.60462 6.26943C10.4976 6.40811 11.3181 6.85275 11.9315 7.5305"/>
</mask>
<path d="M6.15461 11.2082C5.95267 10.5381 5.97952 9.81735 6.23027 9.16548L4.3636 8.44746C3.95329 9.51417 3.90977 10.6906 4.23968 11.7853L6.15461 11.2082ZM6.23027 9.16548C6.48089 8.51392 6.93871 7.97349 7.52385 7.62887L6.50888 5.90554C5.52873 6.48281 4.77402 7.38045 4.3636 8.44746L6.23027 9.16548ZM7.52385 7.62887C8.10851 7.28453 8.78773 7.15456 9.45117 7.25758L9.75808 5.28127C8.6355 5.10694 7.48951 5.328 6.50888 5.90554L7.52385 7.62887ZM9.45117 7.25758C10.1148 7.36064 10.7286 7.69164 11.1901 8.20154L12.6729 6.85945C11.9076 6.01387 10.8805 5.45557 9.75808 5.28127L9.45117 7.25758Z" fill="#5051F9" mask="url(#path-8-outside-4_4_147)"/>
<mask id="path-10-outside-5_4_147" maskUnits="userSpaceOnUse" x="5.8927" y="7.13229" width="6" height="5" fill="black">
<rect fill="white" x="5.8927" y="7.13229" width="6" height="5"/>
<path d="M7.25436 11.4967C7.09189 11.2509 6.98077 10.9735 6.92795 10.6818C6.87513 10.3901 6.88173 10.0904 6.94736 9.80139C7.01299 9.51243 7.13623 9.24041 7.30937 9.00233C7.48251 8.76426 7.70183 8.56526 7.95362 8.41777C8.20541 8.27028 8.48426 8.17747 8.77274 8.14514C9.06121 8.11281 9.35311 8.14166 9.63018 8.22988C9.90725 8.31811 10.1635 8.46381 10.383 8.65788C10.6025 8.85195 10.7805 9.09022 10.9058 9.35779"/>
</mask>
<path d="M8.0886 10.9453C8.00127 10.8132 7.94079 10.6628 7.91194 10.5036L5.94395 10.8599C6.02076 11.2841 6.18251 11.6886 6.42012 12.0481L8.0886 10.9453ZM7.91194 10.5036C7.8831 10.3443 7.88673 10.1805 7.92253 10.0229L5.9722 9.57992C5.87674 10.0002 5.86715 10.4358 5.94395 10.8599L7.91194 10.5036ZM7.92253 10.0229C7.95833 9.86525 8.02528 9.71814 8.11811 9.5905L6.50063 8.41417C6.24718 8.76267 6.06765 9.1596 5.9722 9.57992L7.92253 10.0229ZM8.11811 9.5905C8.21089 9.46292 8.32729 9.35782 8.45906 9.28063L7.44818 7.55491C7.07636 7.77271 6.75412 8.06561 6.50063 8.41417L8.11811 9.5905ZM8.45906 9.28063C8.59076 9.20349 8.73546 9.15558 8.88411 9.13892L8.66137 7.15136C8.23307 7.19936 7.82007 7.33707 7.44818 7.55491L8.45906 9.28063ZM8.88411 9.13892C9.03273 9.12226 9.18331 9.13707 9.32677 9.18275L9.93358 7.27702C9.5229 7.14626 9.08969 7.10336 8.66137 7.15136L8.88411 9.13892ZM9.32677 9.18275C9.47029 9.22844 9.60452 9.30437 9.72063 9.40703L11.0454 7.90873C10.7226 7.62325 10.3442 7.40777 9.93358 7.27702L9.32677 9.18275ZM9.72063 9.40703C9.83679 9.50974 9.93236 9.6371 10.0002 9.78192L11.8114 8.93365C11.6286 8.54334 11.3682 8.19416 11.0454 7.90873L9.72063 9.40703Z" fill="#5051F9" mask="url(#path-10-outside-5_4_147)"/>
<mask id="path-12-outside-6_4_147" maskUnits="userSpaceOnUse" x="13.396" y="8.56656" width="5" height="4" fill="black">
<rect fill="white" x="13.396" y="8.56656" width="5" height="4"/>
<path d="M17.1243 11.4967C17.2017 11.2795 17.2268 11.0464 17.1973 10.8171C17.1678 10.5879 17.0847 10.3693 16.955 10.1799C16.8253 9.9905 16.6529 9.83585 16.4523 9.72908C16.2517 9.62231 16.0288 9.56656 15.8026 9.56656C15.5765 9.56656 15.3536 9.62231 15.153 9.72908C14.9524 9.83585 14.78 9.9905 14.6503 10.1799C14.5206 10.3693 14.4375 10.5879 14.408 10.8171C14.3785 11.0464 14.4036 11.2795 14.481 11.4967"/>
</mask>
<path d="M18.0663 11.8324C18.1967 11.4665 18.2386 11.0747 18.1891 10.6896L16.2055 10.9446C16.2149 11.018 16.2068 11.0924 16.1824 11.161L18.0663 11.8324ZM18.1891 10.6896C18.1396 10.3045 17.9999 9.93582 17.7801 9.61492L16.1299 10.7449C16.1696 10.8028 16.196 10.8713 16.2055 10.9446L18.1891 10.6896ZM17.7801 9.61492C17.5603 9.29391 17.2665 9.02963 16.9221 8.84633L15.9824 10.6118C16.0392 10.6421 16.0904 10.6871 16.1299 10.7449L17.7801 9.61492ZM16.9221 8.84633C16.5776 8.66295 16.1935 8.56656 15.8026 8.56656V10.5666C15.8642 10.5666 15.9257 10.5817 15.9824 10.6118L16.9221 8.84633ZM15.8026 8.56656C15.4118 8.56656 15.0277 8.66295 14.6832 8.84633L15.6229 10.6118C15.6796 10.5817 15.7411 10.5666 15.8026 10.5666V8.56656ZM14.6832 8.84633C14.3388 9.02963 14.045 9.29391 13.8252 9.61492L15.4754 10.7449C15.5149 10.6871 15.5661 10.6421 15.6229 10.6118L14.6832 8.84633ZM13.8252 9.61492C13.6054 9.93582 13.4657 10.3045 13.4161 10.6896L15.3998 10.9446C15.4093 10.8713 15.4357 10.8028 15.4754 10.7449L13.8252 9.61492ZM13.4161 10.6896C13.3666 11.0747 13.4086 11.4665 13.539 11.8324L15.4229 11.161C15.3985 11.0924 15.3904 11.018 15.3998 10.9446L13.4161 10.6896Z" fill="#5051F9" mask="url(#path-12-outside-6_4_147)"/>
<mask id="path-14-outside-7_4_147" maskUnits="userSpaceOnUse" x="11.5264" y="6.63187" width="9" height="6" fill="black">
<rect fill="white" x="11.5264" y="6.63187" width="9" height="6"/>
<path d="M19.0526 11.4967C19.1245 11.0186 19.0944 10.5303 18.9644 10.0652C18.8344 9.60013 18.6076 9.16928 18.2995 8.80219C17.9913 8.4351 17.6092 8.14046 17.1793 7.93845C16.7493 7.73645 16.2817 7.63187 15.8086 7.63187C15.3354 7.63187 14.8678 7.73645 14.4378 7.93845C14.0079 8.14046 13.6258 8.4351 13.3176 8.80219C13.0095 9.16928 12.7827 9.60013 12.6527 10.0652C12.5227 10.5303 12.4926 11.0186 12.5645 11.4967"/>
</mask>
<path d="M20.0415 11.6454C20.1344 11.0279 20.0956 10.3972 19.9275 9.79601L18.0014 10.3344C18.0933 10.6634 18.1147 11.0093 18.0638 11.348L20.0415 11.6454ZM19.9275 9.79601C19.7595 9.19481 19.4658 8.63632 19.0654 8.15927L17.5335 9.4451C17.7494 9.70223 17.9094 10.0054 18.0014 10.3344L19.9275 9.79601ZM19.0654 8.15927C18.6649 7.68215 18.1669 7.2976 17.6045 7.03337L16.754 8.84354C17.0515 8.98332 17.3178 9.18805 17.5335 9.4451L19.0654 8.15927ZM17.6045 7.03337C17.0421 6.76911 16.4293 6.63187 15.8086 6.63187V8.63187C16.1341 8.63187 16.4566 8.70379 16.754 8.84354L17.6045 7.03337ZM15.8086 6.63187C15.1878 6.63187 14.5751 6.76911 14.0126 7.03337L14.8631 8.84354C15.1605 8.70379 15.483 8.63187 15.8086 8.63187V6.63187ZM14.0126 7.03337C13.4502 7.2976 12.9522 7.68215 12.5517 8.15927L14.0836 9.4451C14.2993 9.18805 14.5656 8.98332 14.8631 8.84354L14.0126 7.03337ZM12.5517 8.15927C12.1513 8.63632 11.8576 9.19481 11.6896 9.79601L13.6158 10.3344C13.7077 10.0054 13.8677 9.70223 14.0836 9.4451L12.5517 8.15927ZM11.6896 9.79601C11.5215 10.3972 11.4827 11.0279 11.5756 11.6454L13.5533 11.348C13.5024 11.0093 13.5238 10.6634 13.6158 10.3344L11.6896 9.79601Z" fill="#5051F9" mask="url(#path-14-outside-7_4_147)"/>
<mask id="path-16-outside-8_4_147" maskUnits="userSpaceOnUse" x="9.64783" y="4.74506" width="13" height="7" fill="black">
<rect fill="white" x="9.64783" y="4.74506" width="13" height="7"/>
<path d="M20.9398 11.4967C20.9515 11.3409 20.9633 11.1792 20.9633 11.0174C20.9633 9.61908 20.4199 8.27804 19.4526 7.28929C18.4853 6.30053 17.1735 5.74506 15.8055 5.74506C14.4376 5.74506 13.1257 6.30053 12.1585 7.28929C11.1912 8.27804 10.6478 9.61908 10.6478 11.0174C10.6478 11.1792 10.6595 11.3409 10.6713 11.4967"/>
</mask>
<path d="M15.8055 5.74506V4.74506V5.74506ZM21.937 11.5717C21.9485 11.4192 21.9633 11.2219 21.9633 11.0174H19.9633C19.9633 11.1364 19.9546 11.2626 19.9426 11.4217L21.937 11.5717ZM21.9633 11.0174C21.9633 9.36087 21.3197 7.76789 20.1674 6.58999L18.7378 7.98858C19.52 8.7882 19.9633 9.87729 19.9633 11.0174H21.9633ZM20.1674 6.58999C19.0144 5.41135 17.4459 4.74506 15.8055 4.74506V6.74506C16.9011 6.74506 17.9563 7.18971 18.7378 7.98858L20.1674 6.58999ZM15.8055 4.74506C14.1652 4.74506 12.5967 5.41135 11.4437 6.58999L12.8733 7.98858C13.6548 7.18971 14.71 6.74506 15.8055 6.74506V4.74506ZM11.4437 6.58999C10.2914 7.76789 9.64783 9.36087 9.64783 11.0174H11.6478C11.6478 9.87729 12.0911 8.7882 12.8733 7.98858L11.4437 6.58999ZM9.64783 11.0174C9.64783 11.2219 9.66261 11.4192 9.67409 11.5717L11.6685 11.4217C11.6565 11.2626 11.6478 11.1364 11.6478 11.0174H9.64783Z" fill="#5051F9" mask="url(#path-16-outside-8_4_147)"/>
</svg>
